<?xml version="1.0" standalone="no"?>
<!DOCTYPE svg PUBLIC "-//W3C//DTD SVG 20010904//EN"
 "http://www.w3.org/TR/2001/REC-SVG-20010904/DTD/svg10.dtd">
<svg version="1.0" xmlns="http://www.w3.org/2000/svg"
 width="560.000000pt" height="560.000000pt" viewBox="0 0 560.000000 560.000000"
 preserveAspectRatio="xMidYMid meet">
<metadata>
Created by potrace 1.11, written by Peter Selinger 2001-2013
</metadata>
<g transform="translate(0.000000,560.000000) scale(0.100000,-0.100000)"
fill="#000000" stroke="none">
<path d="M2609 5596 c-2 -2 -39 -7 -82 -11 -43 -3 -88 -8 -100 -10 -265 -44
-360 -68 -552 -135 -390 -136 -766 -372 -1056 -663 -434 -435 -705 -985 -795
-1612 -25 -172 -24 -636 1 -735 2 -8 6 -35 9 -60 7 -53 15 -99 21 -120 2 -8 7
-31 10 -50 10 -62 85 -310 122 -404 39 -101 132 -297 187 -394 35 -61 170
-266 191 -288 5 -6 19 -23 30 -39 11 -15 29 -37 40 -49 11 -11 31 -34 43 -51
45 -58 199 -211 314 -312 64 -56 234 -180 330 -239 355 -220 738 -353 1183
-409 100 -13 489 -12 603 1 520 61 984 246 1392 555 180 137 303 253 465 442
6 7 33 41 60 77 244 316 412 666 505 1053 30 125 34 146 46 226 4 25 9 55 12
66 2 11 7 150 9 308 6 368 -7 491 -85 787 -91 343 -257 680 -479 970 -448 585
-1113 971 -1853 1075 -25 3 -58 8 -75 11 -39 5 -491 14 -496 10z"/>
</g>
</svg>
