<svg width="802" height="602" xmlns="http://www.w3.org/2000/svg">
 <!-- Created with Method Draw - http://github.com/duopixel/Method-Draw/ -->

 <g>
  <title>background</title>
  <rect x="-1" y="-1" width="804" height="604" id="canvas_background" fill="#343a40"/>
 </g>
 <g>
  <title>Layer 1</title>
  <path fill="#fff" stroke="#000" stroke-width="1.5" opacity="0.5" d="m228,360.06087" id="svg_3"/>
  <path fill="#fff" stroke="#000" stroke-width="1.5" opacity="0.5" d="m632,279.06087" id="svg_4"/>
  <path fill="#000000" stroke="#000" stroke-width="1.5" opacity="0.5" d="m651,190.06087" id="svg_5"/>
  <text fill="#000000" stroke-width="0" stroke-opacity="null" fill-opacity="null" x="219.13235" y="413.52783" id="svg_17" font-size="24" font-family="Helvetica, Arial, sans-serif" text-anchor="start" xml:space="preserve" transform="matrix(23.701873779296875,0,0,5.67625093460083,-4973.483941555023,-1841.1276726573706) " stroke="#000"/>
  <text fill="#ffffff" stroke-width="0" stroke-opacity="null" x="237.21918" y="351.05948" id="svg_18" font-size="25" font-family="'Courier New', Courier, monospace" text-anchor="start" xml:space="preserve" transform="matrix(12.843535783362292,0,0,8.738745809357782,-2873.902074066154,-2596.0213500713703) " stroke="#000">F</text>
  <path fill="#ffffff" stroke-width="1.5" stroke-opacity="null" d="m178.63586,134.8208c-2.29886,0 -3.48048,-2.14901 -3.48048,-4.72607c0,-2.14852 0.59072,-4.23448 2.29886,-4.23448c1.18161,0 2.96038,2.08596 3.5511,4.23448c1.18161,3.1282 0,4.72607 -2.36948,4.72607zm392.96655,122.62009c5.25942,0 6.44086,0.55114 3.48048,4.23398c-1.70815,2.57705 -5.25924,4.72557 -6.96739,4.72557c-1.77859,0 -3.5511,-2.14852 -3.5511,-4.72557c0,-2.64027 2.36966,-4.23398 7.03801,-4.23398zm-367.19042,-149.99199c-5.25924,-1.04273 -5.85014,-6.32294 0,-7.91715c2.9602,-0.49092 4.66853,1.04257 4.66853,4.23448c0,2.63994 -1.70832,4.17409 -4.66853,3.68267zm-65.55766,166.80597c7.03801,-1.53432 7.03801,-2.63711 4.66853,-6.25989c-1.77251,-2.63711 -2.36323,-5.82869 -1.18161,-6.87159c0.59072,-1.59704 3.5511,0 5.25924,3.12853c2.36948,4.23448 4.14182,4.78895 8.81034,2.14852c2.8962,-1.59404 5.25924,-2.6396 5.25924,-1.04257c0,1.04257 1.77877,0 4.07763,-2.14852c3.55128,-3.12853 4.14199,-10.00295 0.5909,-13.68595c-2.88976,-3.12853 -17.5565,-2.08563 -21.63413,1.59404c-2.36323,2.64044 -4.14199,2.08896 -6.44086,-2.63661c-3.5511,-7.85743 -3.5511,-8.96055 4.66835,-9.45147c7.03801,0 7.03801,0 1.18161,-3.19158c-2.95394,-1.53432 -5.84996,-4.72557 -5.84996,-6.81153c0,-5.27987 8.15526,-8.40841 11.70636,-4.7254c1.18161,1.53399 3.48066,3.12853 5.85014,3.12853c4.66853,0 26.95756,-17.85755 26.95756,-21.54055c0,-1.59687 2.3053,-2.63944 4.66853,-1.59687c2.89602,0.55431 8.15544,-1.04257 13.48531,-3.683c7.55811,-4.23415 7.55811,-4.72557 3.48048,-11.59716c-2.88976,-4.72557 -6.44086,-6.32294 -14.66048,-6.32294c-9.33688,0 -11.70636,1.04307 -14.59612,7.36601c-1.18805,4.23398 -4.73897,7.36268 -7.03801,7.36268c-4.07763,0 -5.25924,-4.72274 -1.18161,-7.36268c1.77233,-1.04307 2.95394,-4.72557 2.95394,-8.40857c0,-5.7688 -1.18161,-6.81153 -8.81034,-5.27705c-7.62873,1.04257 -7.62873,0.55114 -5.85014,-7.36634c1.18161,-4.7254 2.88976,-8.95955 4.07781,-9.45097c1.18161,-0.55114 2.36305,-5.27705 2.36305,-10.00262c0,-9.45197 3.48691,-11.04601 9.93421,-4.23448c2.95377,3.68284 4.73271,4.23448 5.84996,1.04257c1.18161,-2.08563 5.32343,-2.57705 11.77072,-1.53449c8.74616,2.08596 9.33688,1.53449 8.15526,-4.72557c-0.59072,-3.6825 -1.18787,-7.91698 -1.77859,-8.95955c0,-1.59454 -2.88976,-3.683 -6.37667,-5.27755c-7.03801,-2.63944 -8.81034,-8.95955 -2.36948,-8.95955c1.77877,0 3.48673,-1.04307 3.48673,-3.13186c0,-1.59454 3.55128,-2.63711 8.21963,-2.14885c6.44729,0.55431 9.92777,-1.53366 18.73811,-12.57917c6.44729,-7.91748 11.11564,-12.15163 11.70654,-10.00311c0.59072,2.63711 3.5511,4.1711 6.44712,4.1711c4.66853,0 5.25942,-1.53399 3.55128,-8.40558c-0.59715,-4.7259 -3.55128,-10.49404 -5.32987,-13.13447c-5.25942,-5.83102 -5.25942,-12.64255 0,-10.55742c4.14182,2.08896 17.02979,-3.67968 17.02979,-7.36251c0,-1.59704 1.71458,-2.63994 4.07763,-2.63994c2.36966,0 3.48691,3.19141 3.48691,7.36584c0,5.27705 1.18161,7.36301 4.14199,5.82852c2.29886,-1.10295 4.07781,-4.23448 4.07781,-6.31995c0,-6.32327 18.73794,-17.36895 23.40628,-14.23759c1.77895,1.0434 3.5511,0 4.14861,-3.6825c1.70797,-7.36584 12.29064,-13.13447 16.95899,-9.45147c2.36966,1.53399 4.66871,1.04307 5.26586,-0.55114c1.18143,-2.08879 5.84996,-3.683 11.10921,-4.17476c5.25924,-0.55114 12.29726,-2.63994 15.25764,-4.78845c11.10921,-6.81153 22.22503,-6.32011 26.89338,1.04623c2.96038,5.27671 4.14182,5.27671 4.14182,1.59371c0,-4.7259 2.30548,-5.27705 16.37507,-3.6825c22.28921,2.08879 25.77613,2.08879 33.99575,-0.55164c5.25924,-1.53432 7.03783,-1.0429 7.03783,3.19108c0,2.64044 1.70832,4.72607 4.07781,4.72607c1.77233,0 3.48048,-1.53449 3.48048,-3.13153c0,-4.23398 9.40768,-6.31995 17.62712,-4.23398c6.37667,2.08879 6.96739,2.63944 5.25924,16.81681c-0.59072,8.46863 0,14.23726 1.11743,14.23726c1.18143,0 2.36948,-3.683 2.36948,-8.96005c0,-8.89999 6.44086,-12.58 8.81034,-5.27721c0.5909,2.63728 2.29886,1.59421 3.48048,-2.57689c2.96056,-11.04884 9.40768,-5.28037 7.62873,6.81153c-1.77215,10.00262 -1.77215,10.00262 3.48709,6.31961c2.9602,-1.59421 5.25907,-5.76814 5.25907,-8.40558c0,-2.6401 1.77895,-5.77146 4.14217,-6.87458c4.66817,-2.08513 9.93403,5.82902 8.21945,11.59999c-0.59072,2.63761 -0.59072,4.7259 1.11725,4.7259c1.18805,0 2.36966,-1.53399 2.36966,-2.63994c0,-1.53432 2.89602,-2.08596 6.44712,-1.04257c7.62247,1.59421 8.73972,5.82819 2.29904,8.40524c-1.70815,1.10595 -3.48691,3.683 -3.48691,5.83185c0,3.683 1.18787,3.683 7.62873,0c10.51849,-6.31995 15.18684,-5.83185 16.96578,1.04257c1.18143,3.683 3.48673,5.28004 5.84996,3.683c2.36948,-0.55148 7.62873,1.59704 11.70654,5.27705c3.5511,3.13136 8.81034,5.76863 11.17983,5.76863c3.48691,0 3.48691,2.64027 2.29886,10.00578c-1.18143,7.91748 -1.18143,8.96005 2.36966,5.76897c4.66835,-5.21749 6.44086,-4.7264 8.15544,2.63661c0.59072,3.683 4.73253,6.32294 9.40106,7.91715c5.25924,1.04623 8.15544,3.68284 8.15544,6.81436c0,3.19141 1.77215,6.87159 3.5511,8.96038c4.66853,3.6825 3.48048,14.72818 -1.77895,18.41102c-1.77215,1.10312 -4.07745,0.55164 -4.66835,-1.04257c-1.18143,-1.59737 -5.25924,-1.59737 -12.88815,0c-12.29726,3.67968 -14.59612,4.72557 -11.70636,9.51119c1.77877,3.12853 22.23129,2.08596 33.40486,-1.59704c3.48691,-1.59438 4.66853,0 4.66853,7.36601c0,5.27671 -1.18161,9.45147 -2.95394,9.45147c-1.18805,0 -2.3053,1.59404 -2.3053,4.23398c0,6.32261 2.8962,5.76814 10.52493,-1.59454c4.07119,-4.23398 6.44068,-5.27987 9.33688,-2.63944c2.95394,2.63944 3.5511,2.63944 3.5511,-1.59454c0,-2.58021 -1.18805,-4.72557 -2.9602,-4.72557c-1.11743,0 -2.30548,-2.08879 -2.30548,-4.17476c0,-2.6396 1.71458,-4.72557 4.07763,-4.72557c1.77877,0 4.14199,1.04257 4.14199,2.57705c0,1.5977 2.3053,3.68284 5.26568,4.23448c4.07137,1.59737 5.25924,3.683 4.66835,10.00295c-1.18787,12.09108 1.18179,15.77441 9.92777,13.68878c4.14199,-1.04623 6.44068,0 4.66853,2.08563c-0.52653,1.04257 0,3.683 1.18161,4.78529c4.73897,3.13169 2.9602,10.49487 -2.29904,10.49487c-6.44712,0 -8.21963,2.63944 -4.73253,7.36551c2.36305,2.63994 4.14182,3.12853 6.44068,1.0429c5.32987,-5.27705 6.44729,-1.0429 7.03801,20.00889c0,10.55376 1.18161,18.96266 2.36323,18.96266c2.89602,0 1.77877,11.59999 -2.36323,16.32556c-2.3053,2.63711 -2.3053,5.214 -0.59072,7.36251c4.14182,4.72607 0,18.41202 -5.26586,18.41202c-4.66817,0 -13.47869,10.00262 -13.47869,14.72852c0,5.7718 -7.55811,0 -9.33688,-6.32011c-1.77233,-5.76847 -1.77233,-5.76847 -2.96038,-1.59704c-1.11725,4.78862 5.26568,19.51714 10.58929,23.69106c3.48673,3.19191 -2.96038,8.46863 -7.62891,6.32011c-2.36966,-1.04257 -3.48691,-4.1711 -3.48691,-7.36268c0,-8.95955 -14.66048,-31.54583 -25.77613,-40.01412c-5.91415,-4.17476 -11.17357,-8.90033 -11.17357,-10.49437c0,-3.19158 -18.74437,-13.13447 -29.26286,-16.32589c-5.85658,-1.59704 -7.62891,-1.04273 -7.62891,3.19141c0,3.12853 -1.11725,4.1711 -3.48691,3.12853c-5.25924,-2.08596 -7.62873,2.64044 -2.9602,7.36601c6.44712,5.76847 5.32987,12.64255 -1.70815,10.00262c-4.73271,-1.59421 -5.32361,-1.04307 -3.5511,7.91732c0.59072,5.21699 1.77877,12.09108 1.77877,15.21961c0,3.19158 1.18143,5.27755 2.36305,5.27755c1.71476,0 2.3053,-1.04307 1.11743,-2.63711c-0.59072,-1.59737 0.59733,-3.13153 2.9602,-3.13153c1.77895,0 3.48691,2.08846 3.48691,4.17409c0,2.14885 -2.30512,4.23398 -6.44712,3.68334c-3.48048,0 -6.44086,-1.53449 -6.44086,-2.57739c0,-4.78895 -15.78417,-37.37735 -20.45252,-42.16297c-5.25942,-5.21749 -1.77251,-6.81153 -43.33281,17.91993c-6.44068,3.683 -13.47869,11.59999 -17.02979,17.36895c-2.8962,5.76814 -7.56454,11.59999 -9.92777,12.64255c-2.36948,1.04307 -11.11564,9.45147 -18.74455,18.41152c-32.81414,39.45965 -27.48427,44.18555 -25.18523,124.76893c9.93403,61.06275 9.93403,61.06275 9.93403,61.06275c-23.4129,0 -23.4129,0 -23.4129,0c-19.32883,0 -19.32883,0 -19.32883,0c1.77233,-56.34034 1.77233,-56.34034 1.77233,-56.34034c1.18143,-4.72241 1.77877,-14.23676 2.36966,-19.51431c0.59072,-3.13136 -16.43925,-16.81731 -15.84836,-19.94551c0,-2.63994 17.62069,4.72607 17.62069,2.08563c2.89602,-38.41708 0,-68.98023 -7.62891,-85.2459c-1.77233,-10.00311 -16.43907,-42.15981 -18.73794,-42.15981c-0.5909,0 -4.73271,-3.13136 -8.81034,-6.81436c-7.03819,-6.87126 -9.92777,-7.36301 -49.1892,-9.45147c-42.15101,-2.14569 -42.15101,-2.14569 -42.15101,-2.14569c-9.99196,7.36301 -9.99196,7.36301 -9.99196,7.36301c-5.84996,4.78845 -11.70636,7.91715 -13.41469,7.91715c-3.5511,0 -18.21784,11.04834 -24.59451,17.36796c-0.59072,0 -1.18143,-0.55065 -1.18143,-1.04257c-0.5909,0 -0.5909,0 -0.5909,-0.55148c-0.59072,-1.53399 -1.18787,-3.13136 -2.36948,-4.72557c3.5511,-2.63994 6.44712,-4.23698 7.62873,-3.6825c1.77233,1.04257 3.48691,0 3.48691,-2.64044c0,-2.63711 -3.48691,-3.68284 -12.82379,-2.63711c-11.18001,1.59454 -14.07602,2.14569 -15.84836,8.40574c-2.8962,3.19141 -3.48691,7.91732 -1.77233,11.60032c-0.59733,4.72557 -0.59733,7.91698 0,7.91698c0.59072,0 1.18143,-1.04257 2.95394,-2.14852c0,0.55164 0.59072,1.10595 1.18787,1.59704c-5.8564,1.59421 -8.81678,6.32011 -8.21963,11.04568c-2.9602,2.14852 -5.8564,3.19141 -9.40732,4.78562c0,0 0,-0.55114 -0.52671,-0.55114c2.3053,-4.72557 3.48691,-10.00311 4.07763,-17.9201c1.18805,-8.90033 0.59072,-14.72852 -1.18143,-14.72852c-1.18161,0 -2.36948,2.14852 -2.36948,5.27655c0.59054,2.64044 -0.52671,5.27755 -2.88994,5.76897c-1.77877,0.55114 -2.9602,-0.49142 -2.9602,-3.12853c0,-6.32294 -2.29904,-6.32294 -7.56472,-0.55431c-2.36305,2.14852 -7.03158,4.7259 -11.10921,5.83185c-5.32987,1.53399 -7.03801,0.49092 -9.4075,-5.27755c-1.77233,-4.72557 -2.95394,-10.00578 -1.77233,-12.09141c0.59072,-2.63994 0.59072,-4.78562 -1.70815,-4.78562c-6.44729,0 -1.77877,-8.4089 5.84996,-10.00594l0.00001,0.00004zm50.37064,-121.02305c-3.5511,-0.55114 -6.44729,-2.08563 -7.62873,-4.23415c-0.5909,-3.13136 -1.18161,-3.13136 -1.18161,0c0,2.14852 -2.36948,3.683 -4.66853,4.23415c-4.14182,0 -4.14182,0.55148 0.5909,2.64044c2.88958,1.04257 5.84996,2.63661 6.44068,2.63661c0.52653,0 3.48691,-1.59404 6.44729,-2.63661c5.25924,-2.64044 5.25924,-2.64044 0,-2.64044zm464.37416,84.75448c1.11743,1.04307 2.29904,-0.55431 2.29904,-3.19141c0,-2.08846 -1.18161,-4.17442 -2.29904,-4.17442c-1.77859,0 -2.9602,1.0429 -2.9602,2.57705c0,1.59737 1.18161,3.74589 2.9602,4.78879l0,-0.00001zm-4.14182,4.7259c-0.59072,-1.59737 -3.48691,-3.68284 -5.8564,-3.68284c-1.70815,0 -2.88976,2.08547 -1.70815,3.68284c0.52653,1.59421 2.89602,2.63728 5.25924,2.63728c2.3053,0 2.89602,-1.04307 2.3053,-2.63728l0.00001,0zm-5.25924,23.68823c1.77233,0 4.14182,-0.55114 4.14182,-1.04257c0,-1.10595 -2.36948,-2.14852 -4.14182,-3.19158c-2.3053,-1.0429 -4.07781,-0.49142 -4.07781,1.04307c0,1.59704 1.77251,3.19108 4.07781,3.19108zm4.66853,-50.01674c2.36305,-1.0434 3.55092,-2.64027 2.95394,-4.17476c-1.77251,-3.74256 -11.70028,-3.74256 -11.70028,0c0,4.17476 3.48066,5.76897 8.74634,4.17476zm-32.15906,-39.46331c-2.96038,1.59737 -4.73271,4.7259 -4.14217,6.32294c2.96038,4.1716 6.44747,3.12853 9.40124,-3.683c2.8962,-6.32294 1.71458,-7.36551 -5.25907,-2.63994zm-11.18001,81.07164c15.25746,14.17687 15.84836,14.72852 15.84836,10.00295c0,-2.63711 -1.18161,-4.78562 -2.96038,-4.78562c-1.70797,0 -4.66835,-2.64044 -6.44068,-5.76847c-1.70832,-3.13186 -5.25924,-6.32344 -8.15544,-6.32344c-5.32343,0 -5.32343,0.55447 1.70815,6.87458l-0.00001,0zm-12.291,-24.79452c3.54484,0 5.25942,-1.04257 2.95412,-1.53415c-1.77233,-1.0429 -4.66853,-1.0429 -6.44086,0c-1.77895,0.49159 0,1.53415 3.48673,1.53415l0.00001,0zm-16.9656,-71.55729c1.77233,1.59454 7.03158,3.68017 11.69992,4.72607c8.2198,1.59404 8.81052,1.59404 4.14199,-2.63994c-5.32343,-5.21749 -19.91955,-6.81153 -15.84192,-2.08613l0.00001,0zm-35.71033,-87.33103c-1.77233,1.53399 -2.36305,4.72557 -1.77233,6.81103c1.18161,4.23448 4.66853,0.55164 4.66853,-5.76847c0,-3.19158 -0.5909,-3.683 -2.8962,-1.04257l0,0.00001zm17.5565,113.66004c4.66853,2.63678 6.44729,2.63678 8.81696,-1.04589c4.66835,-5.7688 1.70797,-8.40558 -7.03819,-4.7254c-7.03801,2.57988 -7.03801,2.57988 -1.77877,5.7713l0,-0.00001zm-11.69992,-26.329c8.81034,-5.76797 8.81034,-5.76797 1.77233,-5.76797c-4.73271,0 -8.21963,2.08513 -9.99196,5.76797c-1.11743,3.68017 -2.3053,5.76897 -1.71458,5.76897c0,0 4.66853,-3.13169 9.93421,-5.76897zm-12.88815,85.30612c4.07119,5.76897 11.10939,5.76897 8.81034,-0.55148c-0.59072,-2.08846 -1.18787,-4.72557 -1.18787,-5.28004c0,-0.49142 -2.36323,-0.49142 -5.25924,0.55447c-4.73271,1.0429 -4.73271,2.63711 -2.36323,5.27705zm-18.15365,-21.60293c4.66835,5.7688 7.03801,6.31995 12.29726,2.08596c3.48691,-2.63711 3.48691,-2.63711 0,-3.12853c-1.77233,0 -6.44086,-0.55447 -10.51849,-1.59737c-5.8564,-2.08563 -5.8564,-2.08563 -1.77877,2.63994zm-0.59072,-57.38308c2.9602,0 6.44712,-8.40841 4.66853,-11.04551c-2.29904,-2.63994 -7.03175,1.59404 -7.03175,6.31995c0,2.6401 1.18161,4.72557 2.36323,4.72557l-0.00001,-0.00001zm-28.66589,35.77997c-3.5511,2.14852 -2.9602,2.64044 1.70832,2.64044c2.9602,0 6.44068,-1.04623 7.62873,-2.64044c1.77215,-4.17393 -4.07781,-4.17393 -9.33705,0zm0.5909,46.33457c0.52653,0.55447 2.29886,-0.55148 4.07763,-3.12853c1.77215,-2.14852 7.03175,-4.78845 11.10921,-5.83152c5.25924,-1.59454 7.62891,-4.17143 7.62891,-7.91732c0,-8.89667 -8.21963,-6.26006 -16.96596,5.28021c-3.55092,5.82869 -6.44068,10.55459 -5.84978,11.59716l-0.00001,0zm-6.44712,-24.24004c5.25907,-5.76814 5.25907,-6.81436 1.11707,-8.40857c-4.66835,-2.08596 -8.14883,2.64044 -8.14883,11.04568c-0.59715,6.32294 -0.59715,6.32294 7.03175,-2.63711l0.00001,0zm-9.40124,-62.10848c0.59072,4.23398 1.77233,3.68284 5.25907,-4.17442c4.14217,-8.40574 4.14217,-9.51169 0.5909,-9.51169c-2.29886,0 -4.66853,1.59454 -5.25924,4.23465c-1.18161,2.08547 -1.18161,6.87442 -0.59072,9.45147l-0.00001,-0.00001zm-2.8962,-43.14315c0,2.14569 1.11725,7.36301 2.3053,11.04568c1.77233,7.36584 1.77233,7.36584 3.5511,1.0429c2.29886,-6.31961 0,-15.77108 -3.5511,-15.77108c-1.71458,0 -2.3053,1.59371 -2.3053,3.6825zm-41.02733,17.36563c-2.89602,3.683 -2.89602,7.36601 -0.59715,18.41152c1.18805,7.91715 4.14843,15.83447 5.8564,17.36895c2.96038,2.63994 3.5511,0 4.14182,-16.32306c0,-19.94601 -2.9602,-26.26845 -9.40106,-19.45741l-0.00001,0zm5.25924,55.78887c0.5909,1.04307 1.77233,-1.0429 1.18161,-4.17426c0,-3.19158 -0.59072,-3.683 -1.77233,-1.59421c-0.52671,2.08563 -0.52671,4.72557 0.59072,5.76847zm21.1076,-49.46593c-0.59072,1.04307 -0.59072,8.4089 1.18161,16.32306c1.77877,13.68878 2.3053,14.23992 2.8962,4.23698c0.59072,-16.32589 -0.5909,-24.24287 -4.07781,-20.56004zm-19.92599,148.45767c3.5511,-6.32294 9.40124,-16.87753 13.47887,-23.19997c4.66835,-6.81203 7.62873,-15.77158 8.81034,-24.73163c1.71458,-14.17737 1.71458,-14.17737 1.71458,-14.17737c-7.03801,7.85726 -7.03801,7.85726 -7.03801,7.85726c-3.48691,4.23448 -5.85014,8.96005 -5.85014,10.55459c0,4.17409 -11.11564,30.5026 -14.60256,35.2285c-1.77233,2.63661 -4.73271,8.46863 -5.25924,12.64255c-2.96038,12.08891 2.3053,10.00295 8.74616,-4.17393zm-41.5603,54.19149c1.77877,10.49404 1.77877,10.49404 7.62891,-12.09157c3.48691,-12.1518 8.74616,-31.60555 12.29726,-43.69729c4.66835,-15.28016 6.44712,-27.92271 6.44712,-45.78259c0,-23.19764 -0.59715,-23.68907 -5.2655,-21.04863c-10.58285,6.81137 -16.43925,25.77403 -18.80248,62.59657c-1.11725,18.96632 -2.3053,37.92899 -3.48673,42.10341c-0.5909,4.23415 0,12.15146 1.18143,17.9201l-0.00001,0zm1.18805,-134.71199c2.29886,5.21732 4.66853,9.45147 4.66853,9.45147c0.59072,0 3.4803,-3.19158 5.84996,-7.36551c2.9602,-3.68001 7.62873,-7.91416 9.40124,-9.44864c6.97365,-4.78845 8.74598,-19.51697 2.89602,-29.51992c-4.66853,-8.96005 -17.5565,-18.96599 -19.92616,-15.77441c-1.18143,1.0429 -2.88958,11.04884 -4.07763,22.646c-2.36305,17.36845 -2.36305,22.64833 1.18805,30.01101l-0.00001,0zm-3.5511,-120.53412c1.18161,1.04589 2.36305,0.49142 2.36305,-1.10262c0,-2.08879 -1.18143,-4.17476 -2.36305,-5.21749c-1.77877,-1.10578 -2.8962,-0.55148 -2.8962,1.53449c0,1.59421 1.11743,3.683 2.8962,4.78562zm-189.71184,141.52269c8.15526,0.55431 8.15526,0.55431 8.15526,0.55431c8.21963,0 16.43925,-6.81436 16.43925,-12.64255c0,-3.683 -0.59072,-3.683 -24.59451,12.08825l0,-0.00001zm3.48691,-14.72868c0,1.59787 1.18161,3.19158 2.96038,3.19158c2.88976,0 11.10921,-9.45147 9.33688,-11.04551c-1.77877,-2.14852 -12.29726,4.7254 -12.29726,7.85393zm6.44712,-36.2709c8.81052,10.49687 12.88815,11.53976 17.5565,4.7254c4.73271,-6.31961 0.5909,-10.55409 -13.48513,-12.08858c-11.7001,-1.59737 -11.7001,-1.59737 -4.07137,7.36318zm-6.44712,-29.51726c0,1.10262 4.14182,3.67968 8.81034,5.82819c21.63431,10.00311 25.77613,10.00311 25.18523,0.49192c0,-5.76897 -8.81034,-18.41185 -12.29726,-18.41185c-4.14182,0 -21.69832,10.00295 -21.69832,12.09174l0.00001,0zm31.63253,74.7487c6.44086,0 7.03158,-1.59454 1.77233,-4.1716c-2.36948,-0.55431 -4.66853,0 -5.25924,1.53449c-1.18805,1.59371 0.59072,2.63711 3.48691,2.63711zm4.66853,-123.66315c-4.07781,-2.64027 -9.34349,-3.68284 -11.70654,-2.64027c-4.07763,2.08879 -3.48691,2.64027 2.36305,4.23398c2.8962,1.04623 8.81696,2.08896 11.70654,2.58038c3.48691,0 3.48691,-1.04589 -2.36305,-4.17409zm-0.52653,18.96266c3.4803,0 4.07763,-0.55148 1.70815,-2.14569c-1.70815,-0.49109 -4.07781,-0.49109 -5.25942,0.55164c-0.59072,1.04257 1.18161,2.08596 3.55128,1.59404l-0.00001,0.00001zm3.4803,12.09191c-8.21945,0 -8.21945,0.49092 -3.4803,4.7254c5.84996,4.72557 7.55811,5.27671 9.92777,2.08563c4.07745,-4.1716 1.18143,-6.81103 -6.44747,-6.81103zm11.70672,-59.46904c-2.36966,-2.63994 -2.96038,2.08596 -1.77251,7.85443c0.59072,3.683 2.95394,6.87408 4.14199,6.87408c2.29886,0 0.59072,-11.59999 -2.36948,-14.72852l0,0.00001zm18.73794,69.47116c-1.18143,0.49192 1.77877,3.683 5.26568,6.32327c3.5511,2.63711 6.44068,3.67984 6.44068,2.08563c0,-3.6825 -9.92759,-10.55692 -11.70636,-8.4089zm-14.66048,3.683c-5.25924,3.68334 -2.29886,13.13431 5.32361,14.72885c4.07763,1.04273 10.52493,5.27721 14.60256,9.45114c3.5511,4.23448 6.44068,5.83185 6.44068,4.23448c0,-5.27705 -23.40646,-30.56298 -26.36684,-28.41447l-0.00001,0zm24.0038,43.69779c-3.48673,-8.47179 -7.56454,-12.64338 -15.19345,-15.28332c-5.84996,-2.08563 -11.70636,-3.19108 -13.47869,-2.63678c-1.77877,0.55114 5.25924,7.36268 15.25764,15.27983c18.73794,13.68595 18.73794,13.68595 13.41451,2.64027l-0.00001,0zm31.09956,-81.07197c-1.18161,0 -2.36966,2.08596 -2.36966,4.1716c0,2.63994 1.18805,4.23448 2.36966,4.23448c1.70815,0 2.8962,-1.59454 2.8962,-4.23448c0,-2.08563 -1.18805,-4.1716 -2.8962,-4.1716zm-5.32343,43.14315c0,3.6825 9.99196,1.0429 14.06959,-3.683c5.85014,-7.91698 5.25924,-10.00295 -2.36948,-10.00295c-5.25924,0 -11.7001,7.36617 -11.7001,13.68595l-0.00001,0zm17.02997,-113.66054c-1.77877,6.81153 -2.96038,12.58 -2.36948,13.13447c1.77859,2.08596 6.44729,-13.68562 6.44729,-20.00856c0,-2.63711 -1.77895,0.55447 -4.07781,6.87408l0,0.00001zm30.44465,106.29453c-2.96038,0 -5.25942,1.04623 -5.25942,3.13136c0,1.59454 1.70815,2.64044 3.48048,2.64044c2.36948,0 4.66853,-1.04589 5.26568,-2.64044c1.18161,-2.08513 -0.59715,-3.13136 -3.48673,-3.13136l-0.00001,0zm-7.03819,98.93152c3.48691,9.51452 8.74616,18.41152 11.70654,20.56004c2.96038,1.59454 8.81034,8.96038 12.29726,16.32589c3.48691,7.36301 7.03801,13.13165 7.62891,13.13165c2.88958,0 -2.96038,-48.4202 -7.03801,-63.15154c-3.55128,-12.63972 -4.66871,-24.24004 -4.07781,-42.65156c0.52653,-13.68562 0,-25.77736 -1.18143,-26.82009c-0.5909,-1.0429 -4.66853,-1.0429 -8.21963,0c-6.44729,2.08563 -7.03801,3.683 -7.03801,15.28299c0,8.89717 -1.18179,13.68595 -4.07781,15.77108c-8.21945,4.72607 -7.62873,31.54599 0,51.55156l-0.00001,-0.00002zm-16.9656,-70.51406c-1.18161,-7.91715 -2.36305,-8.96005 -8.81034,-8.96005c-7.62891,0 -7.62891,0.55148 -7.03801,11.59716c0,6.81436 1.18787,14.73135 1.77859,18.41135c0.5909,3.683 2.8962,7.36551 5.25942,7.91715c4.66835,2.64027 9.92759,-15.77108 8.81034,-28.96561zm-8.81034,53.1456c-5.25942,-6.32011 -8.81034,-13.13165 -9.33705,-14.72852c0,-2.08563 -2.9602,-7.36268 -6.44086,-12.08858c-3.5511,-4.72557 -7.62873,-10.55709 -9.4075,-12.64305c-5.84996,-7.36551 -4.66853,-1.04257 1.77877,15.28016c4.07763,11.04834 11.10939,21.05146 19.32883,29.45986c15.19327,14.2371 16.96578,11.59766 4.07781,-5.27987zm-9.33705,25.83708c6.37667,0 5.85014,-0.55114 -2.9602,-8.95955c-5.85014,-5.27755 -9.92777,-11.04601 -9.92777,-13.68612c0,-2.08547 -7.62891,-9.51153 -16.43907,-16.32306c-8.74634,-6.87392 -16.96596,-13.68545 -18.1474,-15.77391c-1.18805,-2.63711 -1.77877,-2.63711 -1.77877,0.49142c0,3.19158 -2.88976,3.6825 -12.29726,2.08563c-6.44086,-1.04307 -11.7001,-1.04307 -11.7001,-0.48859c0,1.0429 2.36305,7.36301 4.73271,13.68545c4.07781,10.49454 5.84996,12.64338 18.73811,16.81465c8.15544,2.63994 21.04324,8.95988 29.26286,13.68545c7.62891,4.78895 16.96578,8.46863 20.51688,8.46863l0.00001,0zm-91.40423,17.85988c2.36948,0 5.8564,-1.04257 8.21945,-2.63944c4.07781,-3.68017 0.59733,-3.68017 -7.03158,0c-3.48691,1.59687 -4.07763,2.08829 -1.18787,2.63944zm-6.44086,-13.13431c5.85014,-2.14535 24.59451,-4.23415 41.62448,-4.23415c32.1528,-0.49142 38.59992,-2.08513 25.71176,-5.27705c-4.07745,-1.04257 -13.41451,-3.683 -21.04324,-6.32011c-13.47887,-4.72557 -41.03376,-3.13136 -43.92352,2.14619c-0.59715,1.04539 -3.5511,1.59687 -6.44712,1.04539c-5.85014,-1.59704 -11.70654,2.63744 -13.47887,11.04601c-2.36948,6.81103 1.77233,7.36551 17.5565,1.59371l0.00001,0.00001zm-46.81954,12.09174c1.18161,4.23448 7.03801,4.72557 11.70654,1.04257c2.88958,-2.08547 2.88958,-3.12803 0,-6.31961c-2.36948,-3.13186 -4.07763,-3.13186 -7.62873,-0.49142c-2.36948,1.53449 -4.07781,4.1716 -4.07781,5.76847l0,-0.00001zm-18.73811,36.82304c2.29904,0 3.48066,1.59454 2.29904,4.7259c-0.52671,2.14852 -2.29904,4.23415 -3.48691,4.23415c-1.77233,0 -2.88976,-2.08563 -2.88976,-4.23415c0,-2.57705 1.70815,-4.7259 4.07763,-4.7259z" id="svg_25" stroke="#000"/>
  <text fill="#ffffff" stroke-width="0" stroke-opacity="null" x="257.20317" y="350.67804" id="svg_1" font-size="25" font-family="'Courier New', Courier, monospace" text-anchor="start" xml:space="preserve" transform="matrix(12.843535783362292,0,0,8.738745809357782,-2873.902074066154,-2596.0213500713703) " stroke="#000">C</text>
 </g>
</svg>